<?xml version="1.0" encoding="utf-8"?>
<!-- Generator: Adobe Illustrator 18.0.0, SVG Export Plug-In . SVG Version: 6.00 Build 0)  -->
<!DOCTYPE svg PUBLIC "-//W3C//DTD SVG 1.1//EN" "http://www.w3.org/Graphics/SVG/1.1/DTD/svg11.dtd">
<svg version="1.1" id="Ebene_1" xmlns="http://www.w3.org/2000/svg" xmlns:xlink="http://www.w3.org/1999/xlink" x="0px" y="0px"
	 viewBox="0 0 841.9 595.3" enable-background="new 0 0 841.9 595.3" xml:space="preserve">
<g>
	<path fill="#3D3D3B" d="M103.2,473.4H87v-70.1h16.2V473.4z"/>
	<path fill="#3D3D3B" d="M163.7,417.9c-1.3-0.4-3.2-0.9-5.6-1.4c-2.4-0.5-5.1-0.7-8.2-0.7c-1.8,0-3.7,0.2-5.7,0.5
		c-2,0.4-3.4,0.7-4.2,0.9v56.1h-16.2v-66.7c3.1-1.2,7-2.3,11.7-3.3c4.7-1,9.9-1.5,15.6-1.5c1.1,0,2.3,0.1,3.8,0.2
		c1.4,0.1,2.9,0.3,4.3,0.5c1.4,0.2,2.8,0.5,4.2,0.8c1.3,0.3,2.4,0.6,3.2,0.9L163.7,417.9z"/>
	<path fill="#3D3D3B" d="M241.2,438.3c0,5.5-0.8,10.6-2.4,15.1c-1.6,4.6-3.9,8.4-6.8,11.7c-2.9,3.2-6.5,5.7-10.7,7.5
		c-4.2,1.8-8.7,2.7-13.7,2.7c-5,0-9.6-0.9-13.7-2.7c-4.1-1.8-7.6-4.3-10.6-7.5c-2.9-3.2-5.2-7.1-6.9-11.7c-1.7-4.6-2.5-9.6-2.5-15.1
		c0-5.5,0.8-10.6,2.5-15.1c1.7-4.5,4-8.4,7-11.6c3-3.2,6.5-5.7,10.7-7.4c4.1-1.7,8.6-2.6,13.5-2.6c4.9,0,9.4,0.9,13.6,2.6
		c4.2,1.7,7.7,4.2,10.7,7.4c2.9,3.2,5.2,7.1,6.9,11.6C240.3,427.7,241.2,432.8,241.2,438.3z M224.6,438.3c0-7-1.5-12.5-4.5-16.5
		c-3-4.1-7.2-6.1-12.5-6.1s-9.5,2-12.5,6.1c-3,4.1-4.5,9.6-4.5,16.5c0,7.1,1.5,12.6,4.5,16.7c3,4.1,7.2,6.2,12.5,6.2
		s9.5-2.1,12.5-6.2C223.1,450.9,224.6,445.3,224.6,438.3z"/>
	<path fill="#3D3D3B" d="M257.9,405.6c3.1-0.9,7.2-1.7,12.2-2.5c5-0.8,10.5-1.2,16.6-1.2c5.7,0,10.5,0.8,14.3,2.3
		c3.8,1.6,6.9,3.8,9.2,6.6c2.3,2.8,3.9,6.2,4.8,10.2c0.9,4,1.4,8.3,1.4,13.1v39.4h-16.2v-36.8c0-3.8-0.2-6.9-0.7-9.6
		c-0.5-2.6-1.3-4.8-2.4-6.4c-1.1-1.7-2.6-2.9-4.6-3.6c-1.9-0.8-4.3-1.1-7-1.1c-2.1,0-4.2,0.1-6.4,0.4c-2.2,0.3-3.9,0.5-5,0.7v56.5
		h-16.2V405.6z"/>
	<path fill="#3D3D3B" d="M399.4,438.4c0,5.4-0.7,10.3-2.1,14.7s-3.4,8.3-6,11.5c-2.6,3.2-5.8,5.7-9.7,7.5c-3.9,1.8-8.3,2.7-13.2,2.7
		c-3.3,0-6.3-0.4-9.1-1.2c-2.8-0.8-5-1.7-6.8-2.7v27.2h-16.2v-92.6c3.3-0.9,7.4-1.7,12.2-2.5c4.8-0.8,9.9-1.2,15.3-1.2
		c5.5,0,10.5,0.9,14.9,2.5c4.4,1.7,8.1,4.1,11.2,7.3c3.1,3.2,5.4,7,7.1,11.5C398.6,427.7,399.4,432.8,399.4,438.4z M382.8,438.7
		c0-7.2-1.6-12.9-4.9-16.9c-3.3-4-8.5-6-15.7-6c-1.5,0-3.1,0.1-4.8,0.2c-1.7,0.1-3.3,0.4-4.9,0.9v40.1c1.4,1,3.3,1.9,5.7,2.7
		c2.4,0.8,4.9,1.3,7.6,1.3c5.9,0,10.2-2,12.9-6C381.4,450.9,382.8,445.5,382.8,438.7z"/>
	<path fill="#3D3D3B" d="M471.8,403.3c-7.2,26.6-15.6,50.7-25.1,72.4c-1.8,4-3.6,7.5-5.5,10.3c-1.9,2.9-4,5.2-6.3,7.1
		c-2.3,1.9-4.9,3.2-7.8,4.1c-2.9,0.8-6.2,1.3-9.9,1.3c-2.5,0-5-0.3-7.4-0.8c-2.5-0.5-4.3-1.1-5.6-1.7l2.9-13
		c3.2,1.3,6.4,1.9,9.6,1.9c4.2,0,7.5-1,9.9-3c2.4-2,4.5-5.1,6.3-9.3c-5.1-9.8-10-20.5-14.7-32.2c-4.7-11.6-8.9-23.9-12.6-37h17.3
		c0.9,3.8,2,7.8,3.3,12.2c1.3,4.4,2.7,8.8,4.2,13.3c1.5,4.5,3.1,9,4.8,13.5c1.7,4.5,3.4,8.6,5.1,12.5c2.8-7.9,5.5-16.4,8-25.4
		c2.5-9,4.8-17.7,6.8-26.1H471.8z"/>
	<path fill="#3D3D3B" d="M483.3,384.8l16.2-2.7v21.2h24.9v13.5h-24.9v28.5c0,5.6,0.9,9.6,2.7,12.1c1.8,2.4,4.8,3.6,9.1,3.6
		c2.9,0,5.6-0.3,7.8-0.9c2.3-0.6,4.1-1.2,5.4-1.7l2.7,12.9c-1.9,0.8-4.3,1.6-7.4,2.5c-3,0.8-6.6,1.3-10.7,1.3c-5,0-9.2-0.7-12.5-2
		c-3.3-1.3-6-3.3-8-5.8c-2-2.5-3.3-5.6-4.2-9.2c-0.8-3.6-1.2-7.7-1.2-12.4V384.8z"/>
	<path fill="#3D3D3B" d="M540.1,473.4V372.1l16.2-2.7v34.7c1.8-0.6,3.9-1.2,6.2-1.6c2.4-0.4,4.7-0.7,7-0.7c5.6,0,10.3,0.8,14,2.3
		c3.7,1.6,6.7,3.8,8.9,6.6c2.2,2.8,3.8,6.2,4.8,10.1c0.9,3.9,1.4,8.3,1.4,13.1v39.4h-16.2v-36.8c0-3.8-0.2-6.9-0.7-9.6
		c-0.5-2.6-1.3-4.8-2.4-6.4c-1.1-1.7-2.6-2.9-4.5-3.6c-1.9-0.8-4.2-1.1-7-1.1c-2.1,0-4.3,0.2-6.6,0.7c-2.2,0.4-3.9,0.9-5,1.2v55.7
		H540.1z"/>
	<path fill="#3D3D3B" d="M681.4,438.3c0,5.5-0.8,10.6-2.4,15.1s-3.9,8.4-6.8,11.7c-2.9,3.2-6.5,5.7-10.7,7.5
		c-4.2,1.8-8.7,2.7-13.7,2.7c-5,0-9.6-0.9-13.7-2.7c-4.1-1.8-7.6-4.3-10.6-7.5s-5.2-7.1-6.9-11.7c-1.7-4.6-2.5-9.6-2.5-15.1
		c0-5.5,0.8-10.6,2.5-15.1c1.7-4.5,4-8.4,7-11.6c3-3.2,6.5-5.7,10.7-7.4c4.1-1.7,8.6-2.6,13.5-2.6c4.9,0,9.4,0.9,13.6,2.6
		c4.2,1.7,7.7,4.2,10.7,7.4c2.9,3.2,5.2,7.1,6.9,11.6C680.6,427.7,681.4,432.8,681.4,438.3z M664.8,438.3c0-7-1.5-12.5-4.5-16.5
		c-3-4.1-7.2-6.1-12.5-6.1c-5.4,0-9.5,2-12.5,6.1c-3,4.1-4.5,9.6-4.5,16.5c0,7.1,1.5,12.6,4.5,16.7c3,4.1,7.2,6.2,12.5,6.2
		c5.4,0,9.5-2.1,12.5-6.2C663.3,450.9,664.8,445.3,664.8,438.3z"/>
	<path fill="#3D3D3B" d="M698.2,405.6c3.1-0.9,7.2-1.7,12.2-2.5c5-0.8,10.5-1.2,16.6-1.2c5.7,0,10.5,0.8,14.3,2.3
		c3.8,1.6,6.9,3.8,9.2,6.6c2.3,2.8,3.9,6.2,4.8,10.2c0.9,4,1.4,8.3,1.4,13.1v39.4h-16.2v-36.8c0-3.8-0.2-6.9-0.7-9.6
		c-0.5-2.6-1.3-4.8-2.4-6.4c-1.1-1.7-2.6-2.9-4.6-3.6c-1.9-0.8-4.3-1.1-7-1.1c-2.1,0-4.2,0.1-6.4,0.4c-2.2,0.3-3.9,0.5-5,0.7v56.5
		h-16.2V405.6z"/>
</g>
<g>
	<radialGradient id="SVGID_1_" cx="454.9163" cy="176.0723" r="216.6534" gradientUnits="userSpaceOnUse">
		<stop  offset="0" style="stop-color:#010202"/>
		<stop  offset="1" style="stop-color:#868686"/>
	</radialGradient>
	<path fill="url(#SVGID_1_)" d="M505.1,161.6c-65.7-64.4-95.4,6.1-95.4,6.1l-16.5,42.5c-0.3,0.8,0,1.8,0.7,2.3
		c10.1,7.6,21.4,18.9,22,34.9c0,0.1,0,0.2,0,0.2c0.9,4.6,0.9,9.7-0.6,15c-5.1,22.2-28.5,39-56.6,39c-16.8,0-27.7-5.6-36.5-15
		c-1.5-1.6-4,0-3.3,2.1c0,0,0,0.1,0,0.1c0,0.1,0.1,0.2,0.2,0.4c20.2,34.8,51.3,57.6,94.4,57.6c57,0,104.4-40.8,114.7-94.8
		c0-0.1,0-0.1,0-0.2C532.3,215.1,523,179.1,505.1,161.6z"/>
	<path opacity="0.1" fill="#FFFFFF" d="M505.1,161.6c-65.7-64.4-95.4,6.1-95.4,6.1l-13.6,35l20.9-31.9c0.7-1.5,13-28.3,36.7-28.3
		c13.6,0,29,8.4,45.8,24.8c16.2,15.9,24.5,49.4,20.7,83.4c-9.8,51.1-54.7,88.1-106.8,88.1c-28.5,0-52.3-10.4-71.2-31.1
		c5.1,1.3,10.5,1.9,16.4,1.9c31.2,0,58.2-18.9,64.3-45c1.6-5.9,1.9-12,0.8-18c-0.6-13.9-8.7-29.7-28.1-42.7l-2.4,6.2
		c-0.3,0.8,0,1.8,0.7,2.3c10.1,7.6,21.4,18.9,22,34.9c0,0.1,0,0.2,0,0.2c0.9,4.6,0.9,9.7-0.6,15c-5.1,22.2-28.5,39-56.6,39
		c-16.8,0-27.7-5.6-36.5-15c-1.5-1.6-4,0-3.3,2.1c0,0,0,0.1,0,0.1c0,0.1,0.1,0.2,0.2,0.4c20.2,34.8,51.3,57.6,94.4,57.6
		c57,0,104.4-40.8,114.7-94.8c0-0.1,0-0.1,0-0.2C532.3,215.1,523,179.1,505.1,161.6z"/>
	<radialGradient id="SVGID_2_" cx="390.4562" cy="320.0414" r="111.5055" gradientUnits="userSpaceOnUse">
		<stop  offset="0" style="stop-color:#FFFFFF"/>
		<stop  offset="1" style="stop-color:#FFFFFF;stop-opacity:0"/>
	</radialGradient>
	<path opacity="0.4" fill="url(#SVGID_2_)" d="M418.8,156.2c-5.2,6.9-7.7,12.8-7.7,12.8l-16.5,42.5c-0.3,0.8,0,1.8,0.7,2.3
		c10.1,7.6,20.4,17.7,21,33.7c0,0.1,0.4,1.2,0.4,3.1c0.2,5.1-0.1,8.3-1.6,13.6c-5.1,22.2-28.3,37.4-56.4,37.4
		c-16.8,0-26.3-4.2-35.1-13.6c-1.5-1.6-4,0-3.3,2.1c0,0,0,0.1,0,0.1c0,0.1,0.1,0.2,0.2,0.4c1.2,2.1,2.5,4.1,3.7,6.1
		c15.9,17,38.4,27.6,63.5,27.6c48,0,86.9-38.9,86.9-86.9C474.6,200.3,451.5,168.7,418.8,156.2z"/>
	<path fill="#C7C6C5" d="M328.8,323.4c-3-6.8-5.5-13.5-7.5-19.9c-3.9,3-8.5,5.5-13.8,7.4c10-23.1,15.8-49.3,17.3-78.1
		c0.6,0,1.3,0.1,2.1,0.2C331.7,265.4,332.4,295.7,328.8,323.4z"/>
	<radialGradient id="SVGID_3_" cx="317.7437" cy="340.0805" r="37.6087" gradientUnits="userSpaceOnUse">
		<stop  offset="0" style="stop-color:#FFFFFF"/>
		<stop  offset="1" style="stop-color:#FFFFFF;stop-opacity:0"/>
	</radialGradient>
	<path fill="url(#SVGID_3_)" d="M328.8,323.4c-3-6.8-5.5-13.5-7.5-19.9c-3.9,3-8.5,5.5-13.8,7.4c10-23.1,15.8-49.3,17.3-78.1
		c0.6,0,1.3,0.1,2.1,0.2C331.7,265.4,332.4,295.7,328.8,323.4z"/>
	<radialGradient id="SVGID_4_" cx="328.1475" cy="273.4244" r="22.6488" gradientUnits="userSpaceOnUse">
		<stop  offset="0" style="stop-color:#010202"/>
		<stop  offset="1" style="stop-color:#010202;stop-opacity:0"/>
	</radialGradient>
	<path fill="url(#SVGID_4_)" d="M328.8,323.4c-3-6.8-5.5-13.5-7.5-19.9c-3.9,3-8.5,5.5-13.8,7.4c10-23.1,15.8-49.3,17.3-78.1
		c0.6,0,1.3,0.1,2.1,0.2C331.7,265.4,332.4,295.7,328.8,323.4z"/>
	<path opacity="0.4" fill="#FFFFFF" d="M326.8,233c-0.8-0.1-1.5-0.2-2.1-0.2c-1.5,28.8-7.3,55-17.3,78.1c5.3-1.9,9.9-4.3,13.8-7.4
		c2,6.4,4.5,13,7.5,19.9C332.4,295.7,331.7,265.4,326.8,233z M326.5,306.4c-0.5-1.4-0.9-2.8-1.4-4.1l-1.7-5.4l-4.5,3.5
		c-1.2,1-2.6,1.9-4,2.7c5-13.4,8.7-27.9,11.1-43.1C327.3,276.1,327.4,291.6,326.5,306.4z"/>
	<radialGradient id="SVGID_5_" cx="473.6967" cy="166.6026" r="219.8571" gradientUnits="userSpaceOnUse">
		<stop  offset="0" style="stop-color:#3D3D3B"/>
		<stop  offset="1" style="stop-color:#868686"/>
	</radialGradient>
	<path fill="url(#SVGID_5_)" d="M517,179.3c0,0-62.7-34.4-113.3,11.7c-2.4,4.3-9.5,23.1-11.7,26.8c-20,33.8-22.4,37-50.8,53.6
		c-4.9,2.8-17.4-1-23.3-2.3c-11.2-2.6-6.5-12-15.8-34.8c-7.4-18.1,3.4-47.9,13-69.4c4.4-9.7,17.6-11.6,24-17.9
		c31.7-30.8,64.7-38.7,104.2-31C492.3,125.7,517,179.3,517,179.3z"/>
	<path opacity="0.1" fill="#FFFFFF" d="M443.3,116c-39.5-7.8-72.5,0.1-104.2,31c-6.5,6.3-19.7,8.1-24,17.9
		c-9.6,21.4-20.4,51.3-13,69.4c9.3,22.8,4.6,32.2,15.8,34.8c6,1.4,18.5,5.2,23.3,2.3c28.4-16.6,30.8-19.8,50.8-53.6
		c2.2-3.7,9.3-22.5,11.7-26.8c50.6-46.1,113.3-11.7,113.3-11.7S492.3,125.7,443.3,116z M465.6,159c-25.6,0-48.2,8.8-67.3,26.1
		c-0.6,0.6-1.2,1.3-1.6,2c-1.3,2.3-3.2,6.8-6.1,14c-1.8,4.5-4.6,11.2-5.4,12.6c-19.8,33.4-21.6,35.4-47.7,50.6
		c-0.2,0-0.6,0.1-1.4,0.1c-3.7,0-9.3-1.4-13.4-2.4c-1.1-0.3-2.2-0.5-3-0.7c-1.9-0.4-1.9-0.4-3.6-7.9c-1.2-5.4-2.8-12.7-6.7-22.2
		c-3.3-8.2-3.8-25.8,12.9-63.1c1.5-3.4,6-5.6,10.7-8c4.1-2,8.3-4.1,11.7-7.4c22.1-21.5,44.9-31.5,71.8-31.5c8,0,16.3,0.9,25.3,2.6
		c26.3,5.2,45.2,24.6,56.3,39.7C489,161,477.8,159,465.6,159z"/>
	<path fill="#BCAA09" d="M357.4,240.3c-2.1,0-3.6-0.6-3.8-0.7c-0.6-0.2-1-0.8-1.2-1.4c-0.1-0.6,0-1.3,0.4-1.8l4-4.6
		c0.7-1.6,3.7-7.8,8.5-9.3c0.5-0.2,1-0.2,1.4-0.2c1.3,0,2.4,0.7,2.9,1.9c1.4,3.4-2.8,10.7-5.5,13.3
		C362.4,239.3,360,240.3,357.4,240.3L357.4,240.3z"/>
	<path fill="#BCAA09" d="M308.1,231.8c-0.2,0-0.3,0-0.5-0.1c-0.2-0.1-5.1-1.3-5.9-6.6c-0.5-3.2,0.3-8.4,2.1-10.5
		c0.8-1,1.7-1.2,2.3-1.2c0.7,0,1.7,0.3,2.6,1.5c2.3,3.3,1.4,8.5,1.1,10l0.4,4.7c0.1,0.6-0.2,1.3-0.7,1.7
		C309,231.6,308.5,231.8,308.1,231.8z"/>
	<path fill="#FEEB17" d="M354.4,237.8c0,0,4.7,2,8.5-1.7s7.7-13.1,3.2-11.7c-4.5,1.4-7.4,8.5-7.4,8.5L354.4,237.8z"/>
	<path fill="#FEEB17" d="M308.1,229.8c0,0-3.8-0.9-4.5-4.9s1.2-11.7,3.4-8.7c2.1,3,0.7,8.7,0.7,8.7L308.1,229.8z"/>
	<radialGradient id="SVGID_6_" cx="419.4777" cy="123.6129" r="137.1721" gradientUnits="userSpaceOnUse">
		<stop  offset="0" style="stop-color:#FFFFFF"/>
		<stop  offset="1" style="stop-color:#FFFFFF;stop-opacity:0"/>
	</radialGradient>
	<path opacity="0.4" fill="url(#SVGID_6_)" d="M328.1,268.2c0-80.5,53-145.8,118.4-145.8c6.8,0,13.5,0.7,20,2.1
		c-7-3.8-14.7-6.8-23.2-8.5c-39.5-7.8-72.5,0.1-104.2,31c-6.5,6.3-19.7,8.1-24,17.9c-9.6,21.4-20.4,51.3-13,69.4
		c9.3,22.8,4.6,32.2,15.8,34.8c2.6,0.6,6.4,1.7,10.3,2.4C328.1,270.3,328.1,269.3,328.1,268.2z"/>
</g>
</svg>
